# Blender 5.1.1
# www.blender.org
mtllib shell.mtl
o shell
v -0.358734 2.395780 0.358734
v -0.358734 2.395780 -0.358734
v -0.358734 0.004220 0.358734
v -0.358734 0.004220 -0.358734
v 0.358734 2.395780 0.358734
v 0.358734 2.395780 -0.358734
v 0.358734 0.004220 0.358734
v 0.358734 0.004220 -0.358734
vn -0.3091 0.5000 0.8090
vn -0.4254 0.6882 -0.5878
vn -0.8090 -0.3090 0.5000
vn -0.5000 -0.8090 -0.3091
vn 0.5000 0.8090 0.3091
vn 0.8090 0.3091 -0.5000
vn 0.5878 -0.4253 0.6882
vn 0.3091 -0.5000 -0.8090
vt 0.012500 0.962500
vt 0.112500 0.962500
vt 0.012500 0.037500
vt 0.112500 0.037500
vt 0.512500 0.962500
vt 0.387500 0.962500
vt 0.512500 0.037500
vt 0.387500 0.037500
s 1
usemtl skin0
f 1/1/1 2/2/2 3/3/3
f 4/4/4 3/3/3 2/2/2
f 2/2/2 1/1/1 5/5/5
f 5/5/5 6/6/6 2/2/2
f 6/6/6 5/5/5 7/7/7
f 3/3/3 4/4/4 7/7/7
f 3/3/3 7/7/7 1/1/1
f 5/5/5 1/1/1 7/7/7
f 8/8/8 7/7/7 4/4/4
f 7/7/7 8/8/8 6/6/6
f 8/8/8 4/4/4 2/2/2
f 2/2/2 6/6/6 8/8/8
